<?xml version="1.0" encoding="utf-8"?>
<!-- Generator: Adobe Illustrator 26.2.1, SVG Export Plug-In . SVG Version: 6.00 Build 0)  -->
<svg version="1.1" xmlns="http://www.w3.org/2000/svg" xmlns:xlink="http://www.w3.org/1999/xlink" x="0px" y="0px"
	 viewBox="0 0 300 264.68" style="enable-background:new 0 0 300 264.68;" xml:space="preserve">
<style type="text/css">
	.st0{fill:#263687;}
	.st1{fill:#8B2021;}
	.st2{fill:#B5B5B5;}
	.st3{opacity:0.2;}
	.st4{display:none;}
	.st5{display:inline;}
	.st6{fill:#F6F6F6;}
</style>
<g id="Layer_3">
	<g>
		<path class="st0" d="M47.4,37.2c1.36,0.34,11.23,3,15.3,12.45c1.98,4.6,1.74,8.85,1.44,11.09c-0.48,2.85-2.18,14.76,5.41,25.4
			c3.52,4.94,7.77,7.82,10.62,9.39c5.01-4.78,10.02-9.57,15.03-14.35c-2.41-0.81-7.01-2.7-11.24-7.04
			c-4.78-4.9-6.5-10.25-7.13-12.75C76.74,59.37,76,45.86,65.55,38.96c-2.72-1.8-5.48-2.74-7.86-3.24c-2.32-0.46-5.8-0.73-9.2,0.9
			C48.11,36.8,47.74,37,47.4,37.2z"/>
		<path class="st0" d="M98.19,44.31c0.59,0.32,4.9,2.72,5.7,7.62c0.39,2.38-0.22,4.34-0.63,5.36c-0.56,1.27-2.75,6.65-0.45,12.52
			c1.07,2.73,2.72,4.57,3.87,5.64c2.91-1.65,5.81-3.3,8.72-4.95c-1.03-0.66-2.96-2.09-4.43-4.61c-1.66-2.85-1.84-5.56-1.84-6.8
			c0.2-0.97,1.44-7.37-2.64-11.83c-1.06-1.16-2.24-1.93-3.3-2.44c-1.03-0.49-2.63-1.02-4.41-0.66
			C98.56,44.21,98.37,44.26,98.19,44.31z"/>
		<path class="st0" d="M38.29,221.95c0.25-1.38,2.25-11.41,11.41-16.09c4.45-2.28,8.71-2.33,10.97-2.17
			c2.87,0.29,14.87,1.19,24.99-7.09c4.7-3.84,7.29-8.28,8.67-11.22c-5.11-4.68-10.21-9.36-15.32-14.04
			c-0.64,2.46-2.23,7.17-6.28,11.68c-4.57,5.09-9.8,7.16-12.25,7.96c-2.03,0.22-15.46,1.86-21.65,12.74
			c-1.61,2.83-2.37,5.65-2.71,8.05c-0.31,2.34-0.34,5.83,1.51,9.12C37.84,221.28,38.06,221.63,38.29,221.95z"/>
		<path class="st0" d="M3.07,126.77c1.16-0.78,9.76-6.31,19.5-2.98c4.73,1.62,7.73,4.65,9.19,6.38c1.78,2.27,9.48,11.52,22.46,13.04
			c6.03,0.7,11.02-0.51,14.09-1.57c-0.18-6.92-0.37-13.85-0.55-20.77c-2.22,1.25-6.71,3.38-12.76,3.61
			c-6.84,0.25-11.96-2.07-14.24-3.27c-1.57-1.31-12.08-9.82-24.21-6.71c-3.16,0.81-5.71,2.23-7.68,3.65
			c-1.9,1.41-4.43,3.81-5.51,7.43C3.24,125.97,3.14,126.37,3.07,126.77z"/>
		<path class="st0" d="M209.84,234.68c-1.32-0.47-10.91-4.02-14.09-13.8c-1.55-4.76-0.92-8.97-0.41-11.18
			c0.74-2.79,3.52-14.5-3.06-25.79c-3.05-5.24-7.02-8.5-9.71-10.33c-5.43,4.3-10.85,8.61-16.28,12.91
			c2.33,1.02,6.73,3.33,10.54,8.04c4.31,5.32,5.53,10.81,5.93,13.35c-0.11,2.04-0.6,15.56,9.17,23.39c2.54,2.04,5.21,3.23,7.52,3.95
			c2.27,0.68,5.71,1.26,9.25-0.05C209.1,235.02,209.48,234.85,209.84,234.68z"/>
		<path class="st0" d="M127.85,261.47c-0.74-1.18-6.05-9.93-2.47-19.57c1.74-4.69,4.85-7.6,6.62-9.02
			c2.31-1.72,11.77-9.17,13.62-22.11c0.86-6.01-0.22-11.02-1.19-14.13c-6.93,0-13.85,0-20.78,0.01c1.19,2.25,3.2,6.79,3.27,12.85
			c0.07,6.84-2.38,11.9-3.64,14.14c-1.35,1.54-10.14,11.82-7.34,24.03c0.73,3.18,2.07,5.77,3.44,7.77c1.36,1.94,3.69,4.53,7.28,5.7
			C127.06,261.28,127.46,261.39,127.85,261.47z"/>
		<path class="st0" d="M260.32,131.02c-1.14,0.81-9.55,6.63-19.39,3.62c-4.79-1.46-7.88-4.39-9.39-6.07
			c-1.86-2.21-9.85-11.2-22.88-12.29c-6.05-0.51-10.99,0.88-14.03,2.03c0.41,6.91,0.83,13.83,1.24,20.74
			c2.18-1.32,6.59-3.6,12.63-4.02c6.82-0.48,12.02,1.67,14.34,2.8c1.61,1.26,12.4,9.42,24.42,5.91c3.13-0.91,5.64-2.41,7.55-3.9
			c1.85-1.47,4.3-3.96,5.26-7.61C260.18,131.81,260.26,131.41,260.32,131.02z"/>
		<path class="st0" d="M223.19,44.05c-0.28,1.37-2.53,11.35-11.79,15.81c-4.51,2.17-8.76,2.11-11.02,1.9
			c-2.86-0.36-14.84-1.55-25.15,6.48c-4.79,3.73-7.49,8.1-8.94,11.01c4.99,4.8,9.98,9.6,14.97,14.4c0.7-2.45,2.4-7.12,6.56-11.52
			c4.69-4.98,9.97-6.92,12.43-7.66c2.04-0.17,15.5-1.48,21.95-12.22c1.68-2.79,2.51-5.59,2.91-7.99c0.37-2.34,0.48-5.83-1.29-9.16
			C223.63,44.73,223.41,44.38,223.19,44.05z"/>
		<path class="st0" d="M137.35,3.71c0.77,1.17,6.25,9.81,2.86,19.52c-1.65,4.72-4.7,7.7-6.44,9.14c-2.28,1.77-11.58,9.4-13.18,22.38
			c-0.74,6.02,0.44,11.02,1.47,14.1c6.92-0.14,13.85-0.28,20.77-0.42c-1.23-2.23-3.34-6.73-3.52-12.78
			c-0.21-6.84,2.14-11.95,3.36-14.21c1.32-1.56,9.9-12.02,6.87-24.17c-0.79-3.16-2.19-5.73-3.6-7.7c-1.39-1.91-3.78-4.46-7.39-5.56
			C138.14,3.89,137.74,3.79,137.35,3.71z"/>
		<path class="st0" d="M48.85,88.36c0.67,0.03,5.6,0.35,8.42,4.44c1.37,1.99,1.66,4.02,1.73,5.11c0.04,1.39,0.37,7.19,4.97,11.5
			c2.14,2,4.42,2.96,5.91,3.44c1.91-2.74,3.83-5.48,5.74-8.21c-1.22-0.15-3.57-0.61-5.98-2.26c-2.72-1.86-4.05-4.23-4.58-5.35
			c-0.23-0.96-1.87-7.28-7.47-9.55c-1.46-0.59-2.85-0.78-4.02-0.79c-1.14,0-2.81,0.21-4.27,1.3C49.15,88.1,48.99,88.23,48.85,88.36z
			"/>
		<path class="st0" d="M42.64,165.7c0.41-0.53,3.5-4.38,8.47-4.34c2.41,0.02,4.25,0.95,5.18,1.52c1.16,0.77,6.1,3.82,12.27,2.54
			c2.87-0.6,4.96-1.92,6.21-2.87c-1.14-3.14-2.28-6.28-3.43-9.42c-0.82,0.91-2.55,2.57-5.29,3.6c-3.09,1.16-5.79,0.88-7.01,0.68
			c-0.92-0.36-7.03-2.65-12.11,0.63c-1.32,0.85-2.27,1.89-2.96,2.84c-0.65,0.93-1.45,2.42-1.39,4.24
			C42.59,165.32,42.61,165.51,42.64,165.7z"/>
		<path class="st0" d="M89.03,216.85c-0.01-0.67-0.03-5.61,3.84-8.71c1.89-1.51,3.89-1.94,4.98-2.08c1.39-0.14,7.15-0.87,11.13-5.76
			c1.85-2.27,2.65-4.61,3.02-6.14c-2.86-1.72-5.73-3.44-8.59-5.16c-0.07,1.23-0.36,3.61-1.84,6.13c-1.67,2.85-3.94,4.33-5.02,4.94
			c-0.94,0.3-7.13,2.37-9.01,8.11c-0.49,1.49-0.58,2.9-0.51,4.07c0.08,1.14,0.4,2.79,1.59,4.17
			C88.75,216.57,88.89,216.71,89.03,216.85z"/>
		<path class="st0" d="M159.37,224.69c-0.5-0.45-4.09-3.84-3.67-8.78c0.21-2.41,1.28-4.16,1.92-5.04c0.85-1.1,4.29-5.78,3.49-12.03
			c-0.37-2.9-1.52-5.1-2.37-6.41c-3.22,0.89-6.44,1.79-9.66,2.68c0.84,0.89,2.36,2.75,3.17,5.55c0.92,3.17,0.43,5.84,0.13,7.05
			c-0.43,0.89-3.19,6.8-0.32,12.12c0.75,1.38,1.71,2.42,2.6,3.17c0.88,0.73,2.3,1.63,4.12,1.71
			C158.98,224.7,159.18,224.7,159.37,224.69z"/>
		<path class="st0" d="M218.34,172.84c-0.66,0.16-5.47,1.23-9.33-1.9c-1.87-1.52-2.72-3.39-3.1-4.42c-0.43-1.32-2.37-6.8-8-9.64
			c-2.61-1.32-5.07-1.6-6.64-1.64c-1.07,3.17-2.14,6.33-3.21,9.5c1.21-0.2,3.6-0.41,6.38,0.49c3.14,1.02,5.07,2.93,5.9,3.85
			c0.49,0.86,3.83,6.46,9.85,7.07c1.56,0.16,2.96-0.06,4.08-0.37c1.09-0.32,2.64-0.99,3.73-2.45
			C218.13,173.17,218.24,173.01,218.34,172.84z"/>
		<path class="st0" d="M217.45,92.46c-0.31,0.6-2.64,4.95-7.52,5.83c-2.38,0.43-4.35-0.15-5.37-0.54c-1.28-0.54-6.7-2.64-12.53-0.23
			c-2.71,1.12-4.52,2.8-5.57,3.96c1.7,2.88,3.4,5.75,5.1,8.63c0.64-1.05,2.04-3,4.54-4.51c2.82-1.71,5.53-1.93,6.77-1.96
			c0.97,0.19,7.4,1.31,11.78-2.85c1.14-1.08,1.89-2.28,2.38-3.34c0.47-1.04,0.98-2.65,0.58-4.42
			C217.56,92.84,217.51,92.64,217.45,92.46z"/>
		<path class="st0" d="M164.67,42.8c0.23,0.63,1.84,5.3-0.83,9.48c-1.3,2.03-3.06,3.09-4.04,3.58c-1.27,0.58-6.48,3.13-8.68,9.04
			c-1.02,2.74-1.02,5.22-0.88,6.78c3.27,0.7,6.53,1.41,9.8,2.11c-0.33-1.18-0.82-3.53-0.23-6.39c0.66-3.23,2.33-5.37,3.16-6.3
			c0.79-0.59,5.98-4.54,5.91-10.58c-0.02-1.57-0.39-2.93-0.83-4.01c-0.44-1.05-1.28-2.51-2.85-3.43
			C165.02,42.98,164.84,42.88,164.67,42.8z"/>
		<path class="st0" d="M132.19,67.73c-36.09,0-65.34,29.25-65.34,65.34c0,36.09,29.25,65.34,65.34,65.34s65.34-29.25,65.34-65.34
			C197.53,96.98,168.27,67.73,132.19,67.73z M131.88,193.34c-33.46,0-60.58-27.12-60.58-60.58s27.12-60.58,60.58-60.58
			s60.58,27.12,60.58,60.58S165.34,193.34,131.88,193.34z"/>
	</g>
	<path class="st0" d="M132.19,78.28c30.21,0.06,54.69,24.56,54.69,54.78c0,30.22-24.47,54.73-54.69,54.78V78.28z"/>
</g>
<g id="Layer_6">
	<path class="st1" d="M175.26,120.53l91.81,3.14c0.59,0.11,1.48,0.2,2.5-0.03c2.27-0.52,3.57-2.32,4.29-3.17
		c3.28-3.81,8.96-4.43,9.91-4.54c3.7-0.41,9.27,0.73,12.64,5.31c3.17,4.31,3.51,10.45,0.57,15.01c-3.42,5.31-9.62,5.87-11.04,5.94
		c-0.7,0.04-7.28,0.31-11.43-3.82c-1.27-1.27-2.4-3.03-4.75-3.59c-1.44-0.34-2.75-0.09-3.62,0.17c-30.57,3.19-61.14,6.38-91.7,9.58
		c-0.31,0.11-1.02,0.3-1.88,0.09c-1.26-0.31-1.91-1.27-2.05-1.49c-0.12-7.05-0.24-14.09-0.36-21.14c0.57-0.37,1.43-0.83,2.54-1.13
		C173.72,120.57,174.62,120.52,175.26,120.53z"/>
	<path class="st2" d="M159.69,111.15c1.28,5.88,2.39,13.72,2.06,22.96c-0.29,8.16-1.63,15.11-3.07,20.48
		c-19.73,1.29-39.46,2.58-59.18,3.87l30.86-45.88L159.69,111.15z"/>
	
		<rect x="136.41" y="104.36" transform="matrix(0.0416 0.9991 -0.9991 0.0416 260.2132 -15.9764)" class="st3" width="4.04" height="46.57"/>
	
		<rect x="132.65" y="113.58" transform="matrix(0.0416 0.9991 -0.9991 0.0416 269.2859 -0.3224)" class="st3" width="4.32" height="53.25"/>
	<path class="st1" d="M151.28,74.74c2.2-1.92,9.74,2.32,14.2,7.17c4.11,4.47,5.34,9.16,7.12,16.32c0.53,2.12,2.24,9.32,2.75,22.58
		c0.25,6.33-0.02,12.19-0.56,23.91c-0.65,14.11-1.29,18.64-2.31,23.22c-0.24,1.08-1.56,6.88-4.72,13.92
		c-3.22,7.18-5.49,9.27-6.85,10.33c-3.79,2.95-7.68,3.48-8.7,3.59c-4.47,0.48-10.18-0.75-10.38-2.61c-0.25-2.24,7.8-2.55,13.63-7.66
		c6.35-5.56,6.36-13.59,7.36-32.98c1.93-37.58,3.3-35.55,1.98-42.1C160.51,89.28,148.08,77.52,151.28,74.74z"/>
	<path class="st1" d="M153.01,74.17c2.54,0.8,4.2,2.29,4.9,2.97c5.6,5.38,7.64,13.79,8.4,17.26c1.51,6.89,1.99,12.8,2.3,19.76
		c0.21,4.75,0.5,14.11-0.32,27.8c-1.06,17.8-2.93,25.39-3.57,27.87c-0.14,0.55-2.1,7.88-7.05,16.1c-2.48,4.12-5.1,7.44-8.87,8.55
		c-0.96,0.28-3.21,0.94-5.69-0.01c-1.04-0.4-2.26-0.74-2.82-1.9c-0.6-1.24-0.13-2.76,0.58-3.68c0.9-1.17,2-1.15,3.56-1.89
		c1.77-0.83,2.7-1.97,4.5-4.16c1.74-2.12,3.17-4.56,4.81-8.68c2.65-6.64,3.82-12.52,4.43-16.55c0.39-2.64,0.57-5.12,0.91-10.08
		c0.71-10.31,0.78-17.91,0.77-19.93c-0.05-7.58-0.08-11.46-0.47-15.46c-0.34-3.54-0.74-7.51-2.01-12.62
		c-2.22-8.98-3.33-13.47-7.12-16.14c-2.71-1.91-5.83-2.33-6.34-4.82c-0.38-1.88,1.02-3.47,1.12-3.57
		C147.38,72.39,152.07,73.87,153.01,74.17z"/>
</g>
<g id="Layer_4">
	<path class="st0" d="M132.19,78.37c-30.21,0.06-54.69,24.56-54.69,54.78c0,30.22,24.47,54.73,54.69,54.78V78.37z"/>
	<g class="st4">
		<g class="st5">
			<path class="st6" d="M170.25,132.1c0.45-0.31,0.67-0.91,0.71-1.83c0.02-0.49,0.04-0.74,0.07-1.23c0.24,0,0.36,0,0.61,0
				c-0.23,2.92-0.19,4.38,0.17,7.28c-0.24,0.02-0.36,0.02-0.61,0.04c-0.07-0.55-0.1-0.83-0.15-1.39c-0.06-0.71-0.31-1.24-0.78-1.61
				c-1.16,0.05-1.73,0.07-2.89,0.12c0.13,3.14,0.36,4.7,1.15,7.8c0.18,0.53,0.43,0.91,0.74,1.14c1.52-0.16,2.29-0.25,3.81-0.41
				c0.43-0.18,0.51-0.7,0.3-1.57c-0.14-0.59-0.21-0.88-0.33-1.47c0.24-0.02,0.36-0.03,0.6-0.05c0.34,1.68,0.56,2.52,1.1,4.18
				c-3.3,0.42-4.94,0.62-8.24,1.04c-0.17-0.51-0.24-0.76-0.39-1.27c0.38-0.04,0.57-0.07,0.95-0.11c0.23-0.1,0.33-0.4,0.32-0.87
				c-1.71-6.39-1.87-9.67-0.79-16.18c0.03-0.32,0.01-0.61-0.06-0.85c-0.07-0.24-0.18-0.39-0.34-0.46c-0.35-0.01-0.52-0.02-0.87-0.03
				c0.1-0.52,0.16-0.78,0.28-1.3c3.23,0.13,4.85,0.2,8.08,0.34c-0.4,1.72-0.55,2.58-0.75,4.29c-0.24,0-0.36,0-0.61,0
				c0.08-0.66,0.12-0.99,0.23-1.65c0.05-0.51-0.09-0.97-0.42-1.4c-1.43-0.04-2.14-0.07-3.57-0.11c-0.16,0.05-0.4,0.4-0.68,1.06
				c-0.45,2.64-0.56,3.96-0.54,6.6C168.52,132.16,169.1,132.14,170.25,132.1z"/>
			<path class="st6" d="M178.15,140.69c0.21,0.5,0.48,0.74,0.79,0.7c0.3-0.03,0.45-0.05,0.75-0.09c0.13,0.45,0.2,0.68,0.35,1.13
				c-1.63,0.21-2.45,0.31-4.08,0.51c-0.16-0.49-0.24-0.73-0.38-1.23c0.49-0.07,0.74-0.1,1.23-0.17c0.28-0.1,0.43-0.36,0.45-0.77
				c0.43-3.16,0.83-4.72,1.96-7.77c-1.29-2.83-1.79-4.29-2.45-7.29c-0.05-0.44-0.28-0.7-0.69-0.78c-0.41-0.02-0.62-0.03-1.03-0.06
				c0.09-0.48,0.14-0.72,0.25-1.2c1.9,0.08,2.85,0.11,4.75,0.19c-0.1,0.46-0.15,0.69-0.24,1.15c-0.28-0.01-0.42-0.01-0.7-0.02
				c-0.37,0.11-0.62,0.36-0.73,0.76c0.48,2.15,0.81,3.2,1.63,5.27c0.91-2.11,1.45-3.14,2.67-5.17c0.02-0.38-0.13-0.64-0.47-0.76
				c-0.29-0.01-0.44-0.01-0.73-0.02c0.09-0.45,0.14-0.68,0.24-1.13c1.64,0.07,2.46,0.1,4.1,0.16c-0.1,0.45-0.15,0.68-0.24,1.14
				c-0.5-0.01-0.75-0.02-1.25-0.04c-0.3,0.06-0.55,0.28-0.76,0.67c-1.47,2.43-2.1,3.68-3.12,6.22c1.41,3.26,2.33,4.83,4.52,7.84
				c0.34,0.36,0.7,0.56,1.06,0.6c0.41-0.04,0.61-0.06,1.02-0.09c0.12,0.42,0.19,0.64,0.33,1.06c-1.91,0.24-2.86,0.36-4.77,0.6
				c-0.14-0.44-0.21-0.66-0.34-1.11c0.29-0.03,0.43-0.05,0.72-0.08c0.32-0.04,0.44-0.3,0.38-0.8c-1.69-2.34-2.42-3.55-3.65-6.03
				C178.84,136.69,178.52,138.01,178.15,140.69z"/>
			<path class="st6" d="M192.97,139.65c1.51-0.17,2.39-0.98,2.78-2.38c0.06-0.24,0.09-0.36,0.15-0.61c0.2,0.19,0.29,0.29,0.49,0.48
				c-0.19,0.76-0.31,1.25-0.4,1.46c-0.09,0.21-0.18,0.42-0.28,0.62c-0.1,0.21-0.21,0.37-0.32,0.51c-0.11,0.13-0.19,0.23-0.23,0.3
				c-0.06,0.06-0.1,0.09-0.16,0.16c-0.52,0.47-1.11,0.76-1.82,0.85c-0.7,0.09-1.4-0.04-2.09-0.41s-1.35-0.94-1.96-1.71
				c-0.6-0.77-1.15-1.76-1.58-2.97c-0.43-1.2-0.66-2.39-0.69-3.54c-0.09-2.91,0.93-5.33,2.69-7.14c0.97-0.97,1.92-1.42,2.79-1.38
				c0.87,0.04,1.54,0.25,2.01,0.63c0.04,0.03,0.07,0.05,0.09,0.05c0.02,0,0.04-0.03,0.05-0.09c0.01-0.06,0.01-0.16-0.01-0.29
				c0.27,0.01,0.4,0.02,0.67,0.03c0.21,1.33,0.35,1.99,0.71,3.28c-0.18,0.2-0.26,0.3-0.44,0.5c-0.09-0.24-0.13-0.36-0.21-0.59
				c-0.17-0.34-0.26-0.51-0.42-0.85c-0.3-0.64-0.63-1.04-1.02-1.18c-0.39-0.15-0.76-0.23-1.12-0.24c-0.36-0.01-0.72,0.07-1.09,0.25
				c-0.37,0.18-0.75,0.47-1.15,0.88c-0.4,0.41-0.77,0.89-1.1,1.45c-0.34,0.56-0.61,1.22-0.82,1.99c-0.2,0.77-0.3,1.56-0.28,2.37
				c0.05,2.23,0.68,4.11,1.69,5.58C190.91,139.12,191.99,139.77,192.97,139.65z"/>
			<path class="st6" d="M207.52,138.09c0.29-0.03,0.44-0.05,0.73-0.08c0.1,0.34,0.15,0.51,0.26,0.84c-1.58,0.2-2.38,0.3-3.96,0.5
				c-0.12-0.35-0.17-0.53-0.27-0.88c0.32-0.04,0.48-0.06,0.8-0.09c0.19-0.02,0.3-0.11,0.33-0.28c0.03-0.16,0.03-0.3,0-0.42
				c-0.03-0.1-0.04-0.15-0.07-0.25c-0.69-1.34-1-2.02-1.51-3.41c-1.51,0.1-2.26,0.15-3.77,0.24c-0.16,1.49-0.19,2.23-0.15,3.73
				c0.03,0.1,0.04,0.15,0.06,0.25c0.04,0.14,0.12,0.27,0.25,0.41c0.13,0.13,0.28,0.21,0.45,0.23c0.32-0.04,0.48-0.06,0.8-0.09
				c0.11,0.37,0.16,0.55,0.28,0.91c-1.39,0.18-2.08,0.26-3.47,0.44c-0.12-0.38-0.18-0.57-0.29-0.95c0.27-0.03,0.4-0.05,0.67-0.08
				c0.15-0.06,0.27-0.19,0.36-0.39c0.09-0.19,0.12-0.41,0.11-0.66c-0.14-5.54,0.51-8.3,3.02-13.57c0.48,0.02,0.72,0.03,1.21,0.05
				c-0.01,5.3,0.68,7.89,3.19,12.74C206.8,137.79,207.13,138.05,207.52,138.09z M200.21,133.27c1.33-0.07,1.99-0.11,3.32-0.18
				c-0.89-2.71-1.16-4.11-1.32-6.94C201.04,128.95,200.64,130.38,200.21,133.27z"/>
			<path class="st6" d="M211.85,136.73c0.13,0.34,0.34,0.58,0.62,0.72c1.21-0.13,1.82-0.2,3.03-0.33c0.98-0.11,1.29-0.72,1.05-1.82
				c-0.05-0.23-0.07-0.35-0.11-0.58c0.24-0.02,0.36-0.03,0.6-0.05c0.22,1.21,0.38,1.8,0.77,3c-3.3,0.42-4.94,0.62-8.24,1.04
				c-0.11-0.33-0.16-0.5-0.26-0.83c0.38-0.04,0.57-0.07,0.95-0.11c0.23-0.08,0.36-0.28,0.4-0.59c-1.12-4.17-1.22-6.31-0.52-10.55
				c0.01-0.21-0.03-0.4-0.11-0.55c-0.08-0.16-0.2-0.26-0.37-0.3c-0.35-0.01-0.52-0.02-0.87-0.03c0.07-0.34,0.11-0.51,0.19-0.85
				c1.74,0.07,2.61,0.11,4.35,0.18c-0.08,0.34-0.12,0.51-0.18,0.84c-0.44-0.01-0.66-0.02-1.1-0.03c-0.16,0.03-0.37,0.26-0.61,0.68
				C210.74,130.65,210.83,132.71,211.85,136.73z"/>
			<path class="st6" d="M221.28,136.01c0.15,0.31,0.4,0.44,0.75,0.4c0.35-0.04,0.52-0.06,0.87-0.1c0.08,0.28,0.12,0.42,0.21,0.7
				c-1.69,0.21-2.53,0.32-4.22,0.53c-0.1-0.29-0.14-0.44-0.23-0.74c0.38-0.05,0.56-0.08,0.94-0.13c0.24-0.07,0.37-0.25,0.42-0.53
				c-1-3.73-1.08-5.64-0.43-9.44c0.01-0.25-0.17-0.42-0.54-0.51c-0.35-0.01-0.52-0.02-0.87-0.03c0.06-0.3,0.09-0.45,0.16-0.75
				c1.7,0.07,2.55,0.1,4.26,0.17c-0.06,0.28-0.09,0.43-0.15,0.71c-0.38-0.01-0.56-0.02-0.94-0.03c-0.25,0.04-0.47,0.19-0.64,0.47
				C220.21,130.46,220.3,132.34,221.28,136.01z"/>
			<path class="st6" d="M231.86,132.89c0.31,1.96-0.6,3.09-3.2,3.42c-1.8,0.23-2.7,0.34-4.49,0.57c-0.09-0.27-0.13-0.41-0.21-0.68
				c0.38-0.04,0.57-0.07,0.95-0.11c0.28-0.09,0.42-0.26,0.43-0.5c-0.92-3.41-1-5.17-0.42-8.65c0-0.17-0.04-0.32-0.13-0.45
				c-0.09-0.13-0.21-0.21-0.38-0.25c-0.35-0.01-0.52-0.02-0.87-0.03c0.06-0.28,0.09-0.42,0.15-0.7c1.81,0.08,2.71,0.11,4.52,0.19
				c0.98,0.04,1.69,0.28,2.16,0.71c0.47,0.43,0.63,1.06,0.54,1.92c-0.11,1.16-0.58,1.9-1.54,2.25c0.71,0.09,1.28,0.32,1.7,0.7
				C231.5,131.64,231.75,132.18,231.86,132.89z M228.47,130.11c0.61-0.18,0.91-0.77,1.01-1.78c0.11-1.14-0.17-1.78-0.97-1.92
				c-0.29-0.05-0.59-0.08-0.91-0.09c-0.32-0.01-0.6-0.02-0.81,0c-0.15,0.02-0.36,0.21-0.59,0.55c-0.24,1.4-0.29,2.1-0.29,3.49
				c0.48-0.01,0.72-0.02,1.2-0.04C227.56,130.33,228.01,130.25,228.47,130.11z M229.53,131.28c-0.32-0.23-0.82-0.33-1.52-0.3
				c-0.84,0.03-1.26,0.05-2.09,0.09c0.07,1.66,0.19,2.49,0.61,4.13c0.12,0.28,0.31,0.47,0.58,0.58c0.31-0.04,0.47-0.05,0.79-0.09
				c0.92-0.11,1.56-0.27,1.91-0.49c0.6-0.37,0.76-1.02,0.6-1.96C230.26,132.28,229.99,131.64,229.53,131.28z"/>
			<path class="st6" d="M234.02,126.46c-0.3-0.01-0.44-0.01-0.74-0.02c0.05-0.24,0.08-0.36,0.13-0.6c1.65,0.07,2.47,0.11,4.12,0.18
				c-0.05,0.22-0.08,0.34-0.12,0.56c-0.32-0.01-0.48-0.02-0.8-0.03c-0.19-0.01-0.33,0.04-0.42,0.13c-0.09,0.09-0.15,0.18-0.16,0.27
				c-0.35,1.94-0.38,2.92-0.17,4.85c0.2,1.86,1.43,2.67,3.21,2.47c1.74-0.2,2.35-1.13,2.25-2.81c-0.19-1.74-0.16-2.61,0.15-4.36
				c0.01-0.08-0.01-0.16-0.08-0.24c-0.07-0.08-0.18-0.14-0.34-0.17c-0.32-0.01-0.48-0.02-0.8-0.03c0.04-0.21,0.07-0.32,0.12-0.53
				c1.4,0.06,2.1,0.09,3.49,0.15c-0.05,0.2-0.07,0.3-0.11,0.49c-0.27-0.01-0.4-0.01-0.67-0.02c-0.13,0.01-0.3,0.07-0.5,0.17
				c-0.2,0.1-0.32,0.21-0.34,0.33c-0.28,1.67-0.31,2.5-0.13,4.16c0.23,2.09-0.51,3.26-2.87,3.56c-2.63,0.33-4.46-0.68-4.73-3.09
				c-0.21-1.91-0.18-2.87,0.15-4.79C234.7,126.76,234.49,126.55,234.02,126.46z"/>
			<path class="st6" d="M254.21,132.69c0.3-0.03,0.45-0.05,0.75-0.09c0.04,0.15,0.07,0.22,0.11,0.37c-1.69,0.21-2.54,0.32-4.23,0.53
				c-0.05-0.17-0.08-0.25-0.13-0.41c0.37-0.04,0.56-0.06,0.93-0.11c0.19-0.02,0.27-0.06,0.25-0.12c-0.01-0.04-0.06-0.09-0.15-0.14
				c-1.34-0.81-1.97-1.25-3.15-2.19c-0.48,0.02-0.72,0.04-1.2,0.06c0.07,1.02,0.16,1.53,0.43,2.54c0.05,0.19,0.28,0.26,0.68,0.22
				c0.35-0.04,0.53-0.06,0.88-0.1c0.05,0.17,0.08,0.26,0.13,0.43c-1.72,0.22-2.58,0.33-4.31,0.54c-0.06-0.19-0.09-0.28-0.15-0.47
				c0.38-0.04,0.58-0.07,0.96-0.11c0.13-0.02,0.25-0.06,0.36-0.13c0.1-0.07,0.14-0.15,0.12-0.23c-0.62-2.33-0.68-3.53-0.29-5.9
				c0.02-0.12-0.02-0.23-0.12-0.33c-0.1-0.1-0.25-0.16-0.43-0.16c-0.35-0.01-0.53-0.02-0.88-0.03c0.04-0.19,0.06-0.29,0.11-0.48
				c1.94,0.08,2.91,0.12,4.86,0.2c0.97,0.04,1.69,0.26,2.18,0.65c0.49,0.38,0.7,0.84,0.66,1.38c-0.08,1.01-0.88,1.61-2.59,1.83
				c1.18,0.93,1.82,1.35,3.16,2.14C253.41,132.7,253.76,132.74,254.21,132.69z M247.57,127.35c-0.19,1.12-0.23,1.68-0.19,2.79
				c0.7-0.03,1.04-0.04,1.74-0.07c1.33-0.05,1.95-0.54,2.02-1.47c0.07-0.93-0.23-1.44-1.04-1.54c-0.27-0.03-0.69-0.06-1.27-0.08
				c-0.57-0.02-0.92,0.01-1.05,0.08C247.67,127.14,247.59,127.23,247.57,127.35z"/>
		</g>
	</g>
</g>
</svg>
